inDegrees=no
num_controls=7
num_derivatives=13
num_iterations=34
num_multipliers=7
num_parameters=0
num_slacks=7
num_states=26
objective=0.426479
objective_accelerations=0.058917
objective_balance=0.001130
objective_effort=0.015642
objective_height=0.344764
objective_ligament=0.006024
solver_duration=512.838421
status=Solve_Succeeded
success=true
DataType=double
version=3
OpenSimVersion=4.5
endheader
time	/jointset/ground_pelvis/pelvis_tilt/value	/jointset/ground_pelvis/pelvis_tx/value	/jointset/ground_pelvis/pelvis_ty/value	/jointset/hip_l/hip_flexion_l/value	/jointset/hip_l/hip_adduction_l/value	/jointset/hip_l/hip_rotation_l/value	/jointset/back/lumbar_extension/value	/jointset/patellofemoral_l/patellar_flexion_l/value	/jointset/knee_l/knee_flexion_l/value	/jointset/knee_l/knee_adduction_l/value	/jointset/knee_l/knee_rotation_l/value	/jointset/ankle_l/ankle_angle_l/value	/jointset/subtalar_l/subtalar_angle_l/value	/jointset/ground_pelvis/pelvis_tilt/speed	/jointset/ground_pelvis/pelvis_tx/speed	/jointset/ground_pelvis/pelvis_ty/speed	/jointset/hip_l/hip_flexion_l/speed	/jointset/hip_l/hip_adduction_l/speed	/jointset/hip_l/hip_rotation_l/speed	/jointset/back/lumbar_extension/speed	/jointset/patellofemoral_l/patellar_flexion_l/speed	/jointset/knee_l/knee_flexion_l/speed	/jointset/knee_l/knee_adduction_l/speed	/jointset/knee_l/knee_rotation_l/speed	/jointset/ankle_l/ankle_angle_l/speed	/jointset/subtalar_l/subtalar_angle_l/speed	/forceset/tau_hip_flexion_l	/forceset/tau_hip_adduction_l	/forceset/tau_hip_rotation_l	/forceset/tau_knee_flexion_l	/forceset/tau_ankle_angle_l	/forceset/tau_subtalar_angle_l	/forceset/tau_lumbar_extension	lambda_cid13_p0	lambda_cid13_p1	lambda_cid13_p2	lambda_cid13_p3	lambda_cid13_p4	lambda_cid13_p5	lambda_cid14_p0	/jointset/ground_pelvis/pelvis_tilt/accel	/jointset/ground_pelvis/pelvis_tx/accel	/jointset/ground_pelvis/pelvis_ty/accel	/jointset/hip_l/hip_flexion_l/accel	/jointset/hip_l/hip_adduction_l/accel	/jointset/hip_l/hip_rotation_l/accel	/jointset/back/lumbar_extension/accel	/jointset/patellofemoral_l/patellar_flexion_l/accel	/jointset/knee_l/knee_flexion_l/accel	/jointset/knee_l/knee_adduction_l/accel	/jointset/knee_l/knee_rotation_l/accel	/jointset/ankle_l/ankle_angle_l/accel	/jointset/subtalar_l/subtalar_angle_l/accel	gamma_cid13_p0	gamma_cid13_p1	gamma_cid13_p2	gamma_cid13_p3	gamma_cid13_p4	gamma_cid13_p5	gamma_cid14_p0
0	0.04928524251014947	0.1074945869963953	0.9030645518483058	0.1266922784136757	-0.3684506344311551	-0.2214568204374747	-0.2144969558742783	0.2051545070141781	0.2051545070141877	-0.1713748004056901	-0.1560588320421576	0.09024313228550125	0.0807040322864316	0	0	0	0	0	0	0	0	0	0	0	0	0	0.1140427211528654	-0.03256800506906229	-0.00890466570940295	-0.2464020584059727	0.1888443949492669	-0.108199978084447	-0.04761331561181002	28.58961155972799	43.44097867549143	-8.869292363828402	-18.45270570997583	-438.7471785735112	-28.19599622778764	-26.08260775062002	-3.41559722023735	-1.10850038725569	-0.8725324083694802	11.69557584155527	-0.1717535926496627	3.208867381126443	-3.559329582674709	10.87397843405171	10.87397843405197	2.278236935031067	-1.009724112972351	3.571264374772794	0.851485990393594	6.990257902363537e-09	5.138549336589525e-07	-2.375603615096847e-08	2.861533464529014e-08	1.497713025192285e-08	1.262366670095189e-07	5.767841401520685e-08
0.01	0.04912014116288407	0.1074406093411054	0.9030221377776068	0.1272620319668208	-0.3684576715407316	-0.2212890706543533	-0.214679603785795	0.2056846327795515	0.2056846327795252	-0.171261655522529	-0.1560965916404441	0.09041856776672801	0.08074725154688614	-0.03312318246615084	-0.01067902772591716	-0.008467971120343165	0.1136274383074832	-0.0013485750766729	0.03340466811329675	-0.03629831057972394	0.1055253762356532	0.105525376235655	0.022614138369586	-0.007461877143644118	0.03499318021819032	0.008682625084785031	0.1156536711960247	-0.04131739431958111	-0.009372913430055569	-0.2510974974109564	0.193906185632786	-0.1016190618232046	-0.0483392562043249	30.57800128133243	40.37104651157743	-8.535561121645316	-20.57147256363367	-439.722483047837	-35.08378618619759	-26.08280086575175	-3.276118422013173	-1.030122742235744	-0.8317000155398255	11.14783399221579	-0.1076621979203031	3.384493649384931	-3.630391037923808	10.31683915483	10.31683915482979	2.25086335513811	-0.6009297537757228	3.449273822012628	0.8823885216134746	-4.360422880809252e-09	8.478767120624464e-07	-9.57608887363645e-08	8.117700337771829e-08	-1.644729210153692e-07	2.642787465805961e-07	1.074086081063354e-07
0.02	0.04862072005853061	0.1072833376531606	0.9028954898853719	0.1289583611365273	-0.3684764449476428	-0.2207916287655506	-0.2152182966515407	0.2072550166946962	0.2072550166946867	-0.1709227970422555	-0.1562062720577309	0.09094112084546818	0.08087844460900681	-0.06686395142079725	-0.0206588065309522	-0.01684676430713807	0.2253151232897485	-0.002347259463111716	0.06593842114476138	-0.07120899085157097	0.2080516299316293	0.2080516299316329	0.04514271942780905	-0.01438416383590613	0.06942351950320319	0.01759476033327341	0.1172646212407573	-0.05006678357017386	-0.009841161151452839	-0.2557929364149208	0.1989679763165992	-0.09503814556194207	-0.04906519679579357	32.61462369023521	37.30936422168066	-8.222218179312168	-22.74460435278599	-439.8181707543734	-41.779190667077	-26.0830130554791	-3.539114517936647	-0.9686506030792169	-0.8546968216598309	11.30762517651174	-0.1017754546028134	3.034684364760019	-3.281803521099479	10.27415392611619	10.27415392611644	2.261125472758501	-0.901806022695894	3.458696188137316	0.8973880231342952	-1.571110366398204e-08	1.18189849046594e-06	-1.677657413217605e-07	1.337386721101464e-07	-3.439229722826613e-07	4.023208261516734e-07	1.571388021974639e-07
0.03	0.04778402533107397	0.1070288697866894	0.9026853487604733	0.1317596624461008	-0.3685041596532548	-0.2199750744114607	-0.2160983885111388	0.2098365088122185	0.2098365088123175	-0.1703604356221318	-0.1563847159394215	0.09180437886655755	0.08109896277960067	-0.1002067923360302	-0.03020578890965445	-0.02517388899801543	0.3343124587996308	-0.003214497178596072	0.097251065261015	-0.1045519864818191	0.3077468844683578	0.3077468844683608	0.06713358169506735	-0.02121300741189388	0.1030352118843713	0.02643630760905835	0.1120797208214197	-0.0451181144003754	-0.00861478372209234	-0.2489885190008339	0.1899061657299777	-0.09591410540894828	-0.04523068340164823	29.6581062981838	37.96722381964755	-8.052692315659252	-20.73117495414132	-439.5290419033538	-39.44082802994939	-26.08277080294206	-3.191630683623377	-0.9433484170695781	-0.8206540512739117	10.60088686672087	-0.08216936351867046	3.16140850730328	-3.321938396241856	9.74219322136711	9.742193221366824	2.138851660132678	-0.5597378862798116	3.283508326512426	0.8664868703393068	-2.344567615178676e-08	1.335092202535061e-06	-1.446451734453109e-07	1.552504898018395e-07	-4.886778042583468e-07	4.016782715266793e-07	1.770602793741696e-07
0.04	0.04662194983342667	0.1066798068240705	0.9023921496369731	0.1356319569364016	-0.3685411410226994	-0.2188490228017212	-0.2173041884894997	0.2133999498759893	0.2133999498759793	-0.169584008567921	-0.1566287111289331	0.09299797432414518	0.08140568618105999	-0.1319401054635866	-0.03957782576051255	-0.03345836402747215	0.4395137594492869	-0.004200592233971947	0.1278378722670909	-0.1363506146022611	0.4044414191617204	0.4044414191617197	0.08795584621925925	-0.02749442543706814	0.1354910068017749	0.03483580650639562	0.1068948204008933	-0.04016944523059818	-0.007388406293831927	-0.2421841015871771	0.1808443551431811	-0.09679006525601641	-0.04139617000832232	26.74539769213296	38.63551493316433	-7.905508606477636	-18.76397633844781	-438.4322187572527	-36.91430479597856	-26.08127309449848	-3.217208960401555	-0.9336614975103691	-0.8461668893757024	10.54841820446659	-0.1255469225811066	2.889516942724471	-2.972930019138452	9.674009957442925	9.674009957442546	2.02740592414524	-0.7923209125331717	3.227516695384408	0.8089783474447738	-3.110568970566636e-08	1.484557500865329e-06	-1.195632566933593e-07	1.761221043792906e-07	-6.327172708878136e-07	3.981762399079518e-07	1.963671438309904e-07
0.05	0.04514829714147101	0.1062378604569896	0.9020159624701921	0.1405403303322029	-0.3685882116262144	-0.2174220724638688	-0.2188197969323822	0.2179161799188952	0.2179161799189208	-0.1686044056313062	-0.1569340216388835	0.0945104159374183	0.08179465347213802	-0.162690115757249	-0.04878366671987214	-0.04179717494452875	0.5417224105962481	-0.005190334732762795	0.157414346381585	-0.1665312334444939	0.4983011225921574	0.4983011225921539	0.1078346863687196	-0.03345540701584476	0.1667881400710462	0.04292821909941906	0.1032646886911286	-0.03831700374703583	-0.006433038116906382	-0.2385786900779727	0.1751012422514225	-0.09561094319053598	-0.03873182909117747	24.99710597285206	38.31986033584924	-7.729908409523767	-17.63680668674262	-437.741875289232	-36.72535462318113	-26.07759989554318	-2.988836198263867	-0.9098428617485367	-0.8305817426580658	9.991314080782191	-0.08241022044777319	2.971099608473558	-3.004651737746475	9.166391080851051	9.16639108085074	1.94885532066868	-0.4811994064650242	3.049479527800026	0.8047382487012914	-3.263321985345737e-08	1.529304836078868e-06	-1.530361122725534e-07	1.869771438764286e-07	-6.961693093546783e-07	4.329502344169498e-07	2.079608782618662e-07
